<svg xmlns="http://www.w3.org/2000/svg" aria-hidden="true" style="width:0;height:0;position:absolute;overflow:hidden"><defs><symbol id="icon-align-left" viewBox="0 0 32 32"><path stroke-linejoin="round" stroke-linecap="round" stroke-width="2.286" d="M22.667 13.333H4M28 8H4M28 18.667H4M22.667 24H4"/></symbol><symbol id="icon-logo" viewBox="0 0 126 32"><path fill="#f6f6f6" d="m0 2.286 14.008 13.861 13.42 13.567V2.285H-.001z" style="fill:var(--color1,#f6f6f6)"/><path fill="#f6f6f6" d="m3.82 5.91 10.237 10.139 9.649 9.845H3.82V5.91z" style="fill:var(--color1,#f6f6f6)"/><path fill="#4f2ee8" d="M23.771 25.959 13.534 15.82 3.885 5.975h19.886v19.984z" style="fill:var(--color2,#4f2ee8)"/><path fill="#4f2ee8" d="m7.935 10.024 11.657 11.657H7.935V10.024z" style="fill:var(--color2,#4f2ee8)"/><path fill="#f6f6f6" d="m7.935 10.024 11.657 11.657V10.024H7.935z" style="fill:var(--color1,#f6f6f6)"/><path d="M47.659 12.266c0-2.366-1.749-3.703-4.773-3.703h-6.315v14.709h6.665c3.045 0 4.999-1.461 4.999-4.299 0-2.201-1.317-3.333-2.859-3.6v-.041c1.214-.411 2.283-1.255 2.283-3.065zm-8.64 2.387v-4.011h3.929c1.461 0 2.263.72 2.263 2.016s-.658 1.995-2.407 1.995h-3.785zm0 1.83h4.299c1.543 0 2.469.843 2.469 2.345 0 1.378-.638 2.366-2.736 2.366h-4.032v-4.711zm15.497 7.098c-3.291 0-5.287-2.283-5.287-5.554s1.995-5.554 5.287-5.554c3.291 0 5.287 2.283 5.287 5.554s-1.995 5.554-5.287 5.554zm0-1.77c2.057 0 3.127-1.625 3.127-3.785 0-2.181-1.07-3.785-3.127-3.785s-3.127 1.605-3.127 3.785c0 2.16 1.07 3.785 3.127 3.785zm11.511 1.77c-3.291 0-5.287-2.283-5.287-5.554s1.995-5.554 5.287-5.554c3.291 0 5.287 2.283 5.287 5.554s-1.995 5.554-5.287 5.554zm0-1.77c2.057 0 3.127-1.625 3.127-3.785 0-2.181-1.07-3.785-3.127-3.785S62.9 15.846 62.9 18.026c0 2.16 1.07 3.785 3.127 3.785zm6.78-13.248v14.709h2.16v-3.806l1.461-1.378 3.312 5.184h2.592l-4.423-6.603L81.9 12.76h-2.654l-4.279 4.217V8.563h-2.16zm14.732 8.352c-1.522-.35-2.695-.432-2.695-1.502 0-.741.699-1.234 1.995-1.234 1.687 0 2.098.843 2.242 1.666h2.098c-.144-1.831-1.502-3.374-4.361-3.374-2.633 0-4.155 1.378-4.155 3.106 0 2.386 2.263 2.715 3.929 3.106 1.543.37 2.798.473 2.798 1.79 0 .658-.638 1.399-2.139 1.399-2.222 0-2.715-.967-2.818-2.098h-2.098c.103 2.222 1.563 3.806 4.958 3.806 2.551 0 4.279-1.255 4.279-3.271 0-2.51-2.098-2.942-4.032-3.394zm11.094-4.443c-1.769 0-2.859.823-3.415 1.646h-.041V8.564h-2.16v14.709h2.16v-6.398c0-1.563 1.131-2.571 2.715-2.571 1.502 0 2.098.905 2.098 2.325v6.645h2.181v-7.262c0-2.407-1.543-3.538-3.538-3.538zm10.163 9.339c-1.913 0-3.045-1.461-3.045-3.23h8.064c0-3.744-1.666-6.11-5.061-6.11-3.168 0-5.163 2.139-5.163 5.554 0 3.291 1.995 5.554 5.266 5.554 2.695 0 4.258-1.522 4.793-3.518h-2.16c-.185.638-.905 1.749-2.695 1.749zm-.042-7.632c1.749 0 2.901 1.173 2.901 2.798h-5.904c0-1.625 1.255-2.798 3.003-2.798zm6.583-5.616v14.709h2.181V8.563h-2.181zm9.236 1.77V8.564a7.6 7.6 0 0 0-1.44-.144c-1.728 0-2.674.782-2.674 3.003v1.337h-1.502v1.769h1.502v8.743h2.181v-8.743h1.934V12.76h-1.934v-1.152c0-1.193.535-1.337 1.934-1.275z" style="fill:var(--color3,#000)"/></symbol><symbol id="icon-shopping-list" viewBox="0 0 25 32"><path d="M22.815 8.593h-4.444V7.112a5.93 5.93 0 0 0-5.926-5.926 5.93 5.93 0 0 0-5.926 5.926v1.481H2.075a1.482 1.482 0 0 0-1.482 1.482v16.296a4.444 4.444 0 0 0 4.445 4.445h14.815a4.444 4.444 0 0 0 4.445-4.445V10.075a1.482 1.482 0 0 0-1.481-1.482zM9.482 7.111a2.962 2.962 0 0 1 5.058-2.095c.556.556.868 1.309.868 2.095v1.481H9.482V7.111zM21.334 26.37a1.478 1.478 0 0 1-1.482 1.481H5.037a1.482 1.482 0 0 1-1.482-1.481V11.555h2.963v1.481a1.482 1.482 0 1 0 2.964 0v-1.481h5.926v1.481a1.482 1.482 0 1 0 2.964 0v-1.481h2.963V26.37z"/></symbol><symbol id="icon-x-close" viewBox="0 0 32 32"><path stroke-linejoin="round" stroke-linecap="round" stroke-width="3.429" d="M24 8 8 24M8 8l16 16"/></symbol><symbol id="icon-trash" viewBox="0 0 32 32"><path fill="none" stroke="#fff" style="stroke:var(--color1,#fff)" stroke-linejoin="round" stroke-linecap="round" stroke-width="2.667" d="M12 4h8M4 8h24m-2.667 0-.935 14.026c-.14 2.104-.21 3.156-.665 3.954a4.007 4.007 0 0 1-1.731 1.62c-.826.4-1.881.4-3.99.4h-4.025c-2.109 0-3.163 0-3.99-.4a4.001 4.001 0 0 1-1.731-1.62c-.455-.798-.525-1.85-.665-3.954L6.666 8m6.667 6v6.667M18.667 14v6.667"/></symbol></defs></svg>