<svg xmlns="http://www.w3.org/2000/svg" aria-hidden="true" style="width:0;height:0;position:absolute;overflow:hidden"><defs><symbol id="icon-logo" viewBox="0 0 32 32"><path fill="#f6f6f6" d="m0 0 16.343 16.171L32 32V0H0z" style="fill:var(--color1,#f6f6f6)"/><path fill="#f6f6f6" d="M4.457 4.229 16.4 16.058l11.257 11.486h-23.2V4.23z" style="fill:var(--color1,#f6f6f6)"/><path fill="#4f2ee8" d="M27.733 27.618 15.79 15.789 4.533 4.303h23.2v23.314z" style="fill:var(--color2,#4f2ee8)"/><path fill="#4f2ee8" d="m9.257 9.029 13.6 13.6h-13.6v-13.6z" style="fill:var(--color2,#4f2ee8)"/><path fill="#f6f6f6" d="m9.257 9.029 13.6 13.6v-13.6h-13.6z" style="fill:var(--color1,#f6f6f6)"/></symbol><symbol id="icon-shopping-list" viewBox="0 0 25 32"><path d="M22.815 8.593h-4.444V7.112a5.93 5.93 0 0 0-5.926-5.926 5.93 5.93 0 0 0-5.926 5.926v1.481H2.075a1.482 1.482 0 0 0-1.482 1.482v16.296a4.444 4.444 0 0 0 4.445 4.445h14.815a4.444 4.444 0 0 0 4.445-4.445V10.075a1.482 1.482 0 0 0-1.481-1.482zM9.482 7.111a2.962 2.962 0 0 1 5.058-2.095c.556.556.868 1.309.868 2.095v1.481H9.482V7.111zM21.334 26.37a1.478 1.478 0 0 1-1.482 1.481H5.037a1.482 1.482 0 0 1-1.482-1.481V11.555h2.963v1.481a1.482 1.482 0 1 0 2.964 0v-1.481h5.926v1.481a1.482 1.482 0 1 0 2.964 0v-1.481h2.963V26.37z"/></symbol><symbol id="icon-align-left" viewBox="0 0 32 32"><path stroke-linejoin="round" stroke-linecap="round" stroke-width="2.286" d="M22.667 13.333H4M28 8H4M28 18.667H4M22.667 24H4"/></symbol><symbol id="icon-x-close" viewBox="0 0 32 32"><path stroke-linejoin="round" stroke-linecap="round" stroke-width="3.429" d="M24 8 8 24M8 8l16 16"/></symbol><symbol id="icon-user-authorization-triangle" viewBox="0 0 28 32"><path fill="#fff" style="fill:var(--color1,#fff)" d="M5.897 12H22.41l-7.423 8.391c-.221.25-.521.39-.834.39s-.613-.14-.834-.39L5.896 12z"/></symbol><symbol id="icon-arrow-narrow-right" viewBox="0 0 32 32"><path stroke-linejoin="round" stroke-linecap="round" stroke-width="3.2" d="M5.333 16h21.333m0 0-8-8m8 8-8 8"/></symbol><symbol id="icon-trash" viewBox="0 0 32 32"><path fill="none" stroke="#fff" style="stroke:var(--color1,#fff)" stroke-linejoin="round" stroke-linecap="round" stroke-width="2.667" d="M12 4h8M4 8h24m-2.667 0-.935 14.026c-.14 2.104-.21 3.156-.665 3.954a4.007 4.007 0 0 1-1.731 1.62c-.826.4-1.881.4-3.99.4h-4.025c-2.109 0-3.163 0-3.99-.4a4.001 4.001 0 0 1-1.731-1.62c-.455-.798-.525-1.85-.665-3.954L6.666 8m6.667 6v6.667M18.667 14v6.667"/></symbol><symbol id="icon-ukrainain-heart" viewBox="0 0 35 32"><path fill="#fecb00" style="fill:var(--color1,#fecb00)" d="M31.552 18.346c-.116.002-.233.01-.35.009-.359-.002-.716-.015-1.073-.038s-.714-.056-1.069-.098-.709-.093-1.062-.152a25.485 25.485 0 0 1-2.105-.443 31.995 31.995 0 0 1-1.041-.28 40.911 40.911 0 0 1-2.056-.648c-.679-.232-1.356-.479-2.032-.732s-1.352-.512-2.029-.771c-.676-.259-1.353-.518-2.031-.769s-1.357-.494-2.039-.723c-.341-.114-.683-.224-1.025-.33a35.353 35.353 0 0 0-2.063-.57 25.13 25.13 0 0 0-2.088-.415 19.724 19.724 0 0 0-2.116-.216 18.188 18.188 0 0 0-1.071-.02 17.636 17.636 0 0 0-3.298.361 16.987 16.987 0 0 0-2.133.589c-.076.026-.15.059-.226.087 1.409 4.55 5.199 9.262 11.973 15.042 2.432 2.075 4.557 3.773 4.721 3.773.802 0 7.029-5.31 10.192-8.691 1.587-1.697 2.926-3.356 4.022-4.963z"/><path fill="#0068c2" style="fill:var(--color2,#0068c2)" d="M8.317 0C6.721.014 5.164.372 3.994 1.107.972 3.005-.046 5.061.001 9.167c.015 1.341.226 2.673.643 4.018.076-.027.15-.061.226-.087a16.987 16.987 0 0 1 2.133-.589 17.392 17.392 0 0 1 3.298-.361 18.156 18.156 0 0 1 2.133.1c.353.036.704.082 1.054.136a24.926 24.926 0 0 1 2.088.415 34.46 34.46 0 0 1 2.063.57c.342.106.684.216 1.025.33.682.228 1.361.472 2.039.723s1.355.51 2.031.769c.676.259 1.352.518 2.029.771s1.354.5 2.032.732a43.697 43.697 0 0 0 2.056.648 31.995 31.995 0 0 0 2.09.523c.351.074.703.141 1.056.2s.707.11 1.062.152c.355.042.712.075 1.069.098s.715.036 1.073.038c.116.001.233-.007.35-.009 4.505-6.612 4.829-12.352.748-16.262C30.912.753 29.822.32 27.344.115c-3.873-.321-6.375.808-8.269 3.732-1.509 2.329-1.992 2.52-2.48.982-.189-.595-1.14-1.845-2.115-2.778C13.065.695 10.649-.021 8.317-.001z"/><path style="fill:var(--color3,#000)" opacity=".218" d="M21.689 27.451c7.613-8.093 10.49-13.114 10.5-18.323.007-4.137-1.26-6.453-4.332-7.913L25.376.036l2.586.289c4.755.531 7.77 5.211 6.879 10.678-.672 4.123-3.268 8.132-8.943 13.809-6.573 6.576-9.838 8.623-4.209 2.64zM14.238 5.404C13 3.16 11.961 2.126 10.088 1.276 7.657.173 7.638.141 9.368.131c3.317-.02 8.335 4.48 7.862 7.051-.322 1.752-1.397 1.113-2.992-1.777z"/><path fill="#fff" style="fill:var(--color4,#fff)" opacity=".368" d="M6.444 2.729c-.727-.004-1.504.456-2.448 1.4-2.635 2.375-1.052 11.816.124 5.816.217-.989 1.66-2.366 2.594-3.057C8.875 5.29 9.245 4.718 8.106 3.58c-.561-.561-1.096-.847-1.662-.851zm17.625.131c-1.031-.007-2.121.773-2.858 2.198-1.161 2.245-.507 2.359 1.193 2.359.797 0 1.571-.651 2.486-1.445 1.544-1.341 1.594-1.515.692-2.432-.449-.456-.973-.676-1.514-.68z"/></symbol><svg id="arrowtotop" width="24" height="24" viewBox="0 0 24 24" xmlns="http://www.w3.org/2000/svg"><path d="m3.375 14.7 8.4-8.425c.1-.1.208-.17.325-.212A1.1 1.1 0 0 1 12.475 6c.133 0 .258.021.375.063a.872.872 0 0 1 .325.212L21.6 14.7c.233.233.35.525.35.875s-.125.65-.375.9a1.2 1.2 0 0 1-.875.375 1.2 1.2 0 0 1-.875-.375l-7.35-7.35-7.35 7.35c-.233.233-.52.35-.862.35-.342 0-.638-.125-.888-.375A1.2 1.2 0 0 1 3 15.575a1.2 1.2 0 0 1 .375-.875Z"/></svg></defs></svg>