<svg aria-hidden="true" style="width:0;height:0;position:absolute;overflow:hidden" xmlns="http://www.w3.org/2000/svg"><defs><symbol id="icon-arrow_down_donate" viewBox="0 0 32 32"><path d="M15.053 17.867a1.334 1.334 0 0 0 1.894 0l6.107-6.12a1.344 1.344 0 0 1 .947-.395 1.331 1.331 0 0 1 .947.395 1.336 1.336 0 0 1 0 1.88l-6.12 6.12a4.001 4.001 0 0 1-5.654 0l-6.12-6.12a1.337 1.337 0 0 1 .434-2.172 1.331 1.331 0 0 1 1.46.292l6.107 6.12z"/></symbol><symbol id="icon-align-left" viewBox="0 0 32 32"><path stroke-linejoin="round" stroke-linecap="round" stroke-width="2.286" d="M22.667 13.333H4M28 8H4M28 18.667H4M22.667 24H4"/></symbol><symbol id="icon-arrow_down_user" viewBox="0 0 60 32"><path d="M3.167 3h53.667L32.711 30.27c-.719.812-1.694 1.269-2.71 1.269s-1.991-.456-2.71-1.269L3.168 3z"/></symbol><symbol id="icon-arrow_right" viewBox="0 0 43 32"><path stroke-linejoin="round" stroke-linecap="round" stroke-width="5.333" d="M3.555 16h35.556m0 0L25.778 2.667M39.111 16 25.778 29.333"/></symbol><symbol id="icon-arrow_top" viewBox="0 0 55 32"><path d="M1.091 25.309 25.527.8c.291-.291.606-.496.945-.617.339-.122.703-.183 1.091-.183s.752.061 1.091.183c.339.12.655.326.946.617l24.509 24.509c.679.679 1.018 1.527 1.018 2.545s-.364 1.891-1.091 2.618c-.727.727-1.576 1.091-2.545 1.091s-1.818-.364-2.545-1.091L27.564 9.09 6.182 30.472c-.679.679-1.515 1.018-2.508 1.018-.995 0-1.856-.364-2.583-1.091S0 28.823 0 27.854c0-.97.364-1.818 1.091-2.545z"/></symbol><symbol id="icon-letter" viewBox="0 0 38 32"><path stroke-linejoin="round" stroke-linecap="round" stroke-width="2.909" d="M35.03 26.182 23.757 16m-9.697 0L2.787 26.182M1.939 7.515l13.856 9.699c1.122.785 1.683 1.178 2.293 1.33a3.404 3.404 0 0 0 1.642 0c.61-.152 1.171-.545 2.293-1.33l13.856-9.699M10.085 29.576h17.648c2.851 0 4.277 0 5.366-.555a5.09 5.09 0 0 0 2.225-2.225c.555-1.089.555-2.515.555-5.366V10.569c0-2.851 0-4.277-.555-5.366a5.09 5.09 0 0 0-2.225-2.225c-1.089-.555-2.515-.555-5.366-.555H10.085c-2.851 0-4.277 0-5.366.555a5.09 5.09 0 0 0-2.225 2.225c-.555 1.089-.555 2.515-.555 5.366V21.43c0 2.851 0 4.277.555 5.366a5.09 5.09 0 0 0 2.225 2.225c1.089.555 2.515.555 5.366.555z"/></symbol><symbol id="icon-lock" viewBox="0 0 32 32"><path stroke-linejoin="round" stroke-linecap="round" stroke-width="2.667" d="M23.778 14.444V9.777c0-4.296-3.482-7.778-7.778-7.778S8.222 5.481 8.222 9.777v4.667M9.467 30h13.067c2.614 0 3.92 0 4.919-.509a4.662 4.662 0 0 0 2.039-2.039c.509-.998.509-2.305.509-4.919v-.622c0-2.614 0-3.92-.509-4.919a4.662 4.662 0 0 0-2.039-2.039c-.998-.509-2.305-.509-4.919-.509H9.467c-2.614 0-3.92 0-4.919.509a4.662 4.662 0 0 0-2.039 2.039C2 17.99 2 19.297 2 21.911v.622c0 2.614 0 3.92.509 4.919a4.662 4.662 0 0 0 2.039 2.039C5.546 30 6.853 30 9.467 30z"/></symbol><symbol id="icon-logo_type_plug" viewBox="0 0 36 32"><path d="M34.699 7.713a16.911 16.911 0 0 0-2.376-1.001v19.741a16.395 16.395 0 0 0-5.657-1.017c-3.071 0-6.109.886-8.889 2.593V8.173c-2.618-1.526-5.64-2.429-8.889-2.429-2.893 0-5.624.722-8.032 1.969-.533.263-.857.837-.857 1.444v19.824c0 .952.76 1.625 1.616 1.625.259 0 .517-.066.776-.197 1.956-1.034 4.154-1.69 6.497-1.69 3.345 0 6.432 1.346 8.889 3.282 2.457-1.936 5.543-3.282 8.889-3.282 2.343 0 4.541.656 6.497 1.707.259.131.517.197.776.197.84 0 1.616-.673 1.616-1.625V9.158c0-.607-.323-1.181-.857-1.444zm-20.154 18.74c-1.842-.673-3.733-1.017-5.657-1.017s-3.814.345-5.657 1.017V10.19a14.205 14.205 0 0 1 5.657-1.165c1.939 0 3.863.41 5.657 1.181v16.246zM29.091 0 21.01 8.205v15.59l8.081-7.385V0z"/></symbol><symbol id="icon-trash" viewBox="0 0 32 32"><path stroke-linejoin="round" stroke-linecap="round" stroke-width="2.909" d="M12 4h8M4 8h24m-2.667 0-.935 14.026c-.14 2.104-.21 3.157-.665 3.954a4 4 0 0 1-1.731 1.619c-.826.4-1.881.4-3.99.4h-4.025c-2.109 0-3.163 0-3.99-.4a4.005 4.005 0 0 1-1.731-1.619c-.455-.798-.525-1.85-.665-3.954L6.666 8m6.667 6v6.667M18.667 14v6.667"/></symbol><symbol id="icon-user" viewBox="0 0 32 32"><path d="M5.333 29.333a10.662 10.662 0 0 1 18.208-7.543c2 2 3.124 4.714 3.124 7.543H5.332zm10.667-12c-4.42 0-8-3.58-8-8s3.58-8 8-8 8 3.58 8 8-3.58 8-8 8z"/></symbol><symbol id="icon-x-close" viewBox="0 0 32 32"><path stroke-linejoin="round" stroke-linecap="round" stroke-width="5.333" d="M28.444 3.556 3.555 28.445m.001-24.889 24.889 24.889"/></symbol><symbol id="icon-ukrainain-heart" viewBox="0 0 35 32"><path fill="#fecb00" style="fill:var(--color1,#fecb00)" d="M31.552 18.346c-.116.002-.233.01-.35.009-.359-.002-.716-.015-1.073-.038s-.714-.056-1.069-.098-.709-.093-1.062-.152a25.485 25.485 0 0 1-2.105-.443 31.995 31.995 0 0 1-1.041-.28 40.911 40.911 0 0 1-2.056-.648c-.679-.232-1.356-.479-2.032-.732s-1.352-.512-2.029-.771c-.676-.259-1.353-.518-2.031-.769s-1.357-.494-2.039-.723c-.341-.114-.683-.224-1.025-.33a35.353 35.353 0 0 0-2.063-.57 25.13 25.13 0 0 0-2.088-.415 19.724 19.724 0 0 0-2.116-.216 18.188 18.188 0 0 0-1.071-.02 17.636 17.636 0 0 0-3.298.361 16.987 16.987 0 0 0-2.133.589c-.076.026-.15.059-.226.087 1.409 4.55 5.199 9.262 11.973 15.042 2.432 2.075 4.557 3.773 4.721 3.773.802 0 7.029-5.31 10.192-8.691 1.587-1.697 2.926-3.356 4.022-4.963z"/><path fill="#0068c2" style="fill:var(--color2,#0068c2)" d="M8.317 0C6.721.014 5.164.372 3.994 1.107.972 3.005-.046 5.061.001 9.167c.015 1.341.226 2.673.643 4.018.076-.027.15-.061.226-.087a16.987 16.987 0 0 1 2.133-.589 17.392 17.392 0 0 1 3.298-.361 18.156 18.156 0 0 1 2.133.1c.353.036.704.082 1.054.136a24.926 24.926 0 0 1 2.088.415 34.46 34.46 0 0 1 2.063.57c.342.106.684.216 1.025.33.682.228 1.361.472 2.039.723s1.355.51 2.031.769c.676.259 1.352.518 2.029.771s1.354.5 2.032.732a43.697 43.697 0 0 0 2.056.648 31.995 31.995 0 0 0 2.09.523c.351.074.703.141 1.056.2s.707.11 1.062.152c.355.042.712.075 1.069.098s.715.036 1.073.038c.116.001.233-.007.35-.009 4.505-6.612 4.829-12.352.748-16.262C30.912.753 29.822.32 27.344.115c-3.873-.321-6.375.808-8.269 3.732-1.509 2.329-1.992 2.52-2.48.982-.189-.595-1.14-1.845-2.115-2.778C13.065.695 10.649-.021 8.317-.001z"/><path style="fill:var(--color3,#000)" opacity=".218" d="M21.689 27.451c7.613-8.093 10.49-13.114 10.5-18.323.007-4.137-1.26-6.453-4.332-7.913L25.376.036l2.586.289c4.755.531 7.77 5.211 6.879 10.678-.672 4.123-3.268 8.132-8.943 13.809-6.573 6.576-9.838 8.623-4.209 2.64zM14.238 5.404C13 3.16 11.961 2.126 10.088 1.276 7.657.173 7.638.141 9.368.131c3.317-.02 8.335 4.48 7.862 7.051-.322 1.752-1.397 1.113-2.992-1.777z"/><path fill="#fff" style="fill:var(--color4,#fff)" opacity=".368" d="M6.444 2.729c-.727-.004-1.504.456-2.448 1.4-2.635 2.375-1.052 11.816.124 5.816.217-.989 1.66-2.366 2.594-3.057C8.875 5.29 9.245 4.718 8.106 3.58c-.561-.561-1.096-.847-1.662-.851zm17.625.131c-1.031-.007-2.121.773-2.858 2.198-1.161 2.245-.507 2.359 1.193 2.359.797 0 1.571-.651 2.486-1.445 1.544-1.341 1.594-1.515.692-2.432-.449-.456-.973-.676-1.514-.68z"/></symbol><svg id="emblem" width="20" height="32" viewBox="0 0 20 32" fill="#fff" xmlns="http://www.w3.org/2000/svg"><path d="M9.005 30.888a8.64 8.64 0 0 1-3.414-5.351H0V2.42c2.991 1.443 5.153 4.6 5.388 7.876l.845 6.493-.407-.045c-.893 0-1.676.812-1.676 1.608 0 .752.595 1.383 1.379 1.548l1.018.226c1.675-3.051 2.63-6.042 2.63-8.973 0-2.646-.36-5.291-.422-7.997 0-1.202.485-2.3 1.253-3.156.783.857 1.253 1.954 1.253 3.156 0 2.706-.423 5.351-.423 7.997 0 2.93.955 5.922 2.631 8.973l1.018-.226c.783-.165 1.378-.811 1.378-1.548 0-.811-.783-1.608-1.675-1.608l-.423.06.845-6.493C15.035 7.034 17.01 3.863 20 2.435v23.117h-5.576c-.422 2.18-1.613 4.148-3.414 5.35-.423.286-.783.632-1.018 1.098-.22-.466-.58-.812-.987-1.112ZM2.647 17.556c.235-.857.893-1.609 1.738-2.075l-.658-5.35a8.286 8.286 0 0 0-2.036-4.374V17.54h.956v.015Zm2.819 6.373c0-.812.125-1.548.298-2.3l-.784-.18c-1.143-.346-2.036-1.203-2.333-2.3H1.69v4.78h3.775Zm3.712 0c0-.977-.783-1.834-1.801-1.954-.173.63-.298 1.262-.298 1.954h2.099Zm0 1.623H7.314c.298 1.262.955 2.42 1.864 3.397v-3.397Zm2.63-5.005c-.72-1.263-1.377-2.585-1.8-3.968-.423 1.383-1.08 2.705-1.801 3.968.72.165 1.315.631 1.8 1.157.486-.526 1.082-.992 1.802-1.157Zm1.144 3.382c0-.692-.125-1.323-.297-1.954-1.018.12-1.801.977-1.801 1.954h2.098Zm-.235 1.623h-1.863v3.397c.908-.992 1.566-2.135 1.863-3.397Zm5.623-1.623v-4.78h-.956c-.297 1.097-1.206 1.954-2.333 2.3l-.783.18c.172.752.297 1.488.297 2.3h3.775Zm0-6.373v-11.8c-1.08 1.203-1.864 2.706-2.036 4.375l-.658 5.35c.846.466 1.504 1.203 1.738 2.075h.956Z"/></svg></defs></svg>