<svg xmlns="http://www.w3.org/2000/svg" aria-hidden="true" style="position:absolute;width:0;height:0;overflow:hidden">
  <defs>

  <!-- Header -->
    <symbol id="icon-logo" viewBox="0 0 32 32">
      <path fill="#f6f6f6" d="m0 0 16.343 16.171L32 32V0H0z" style="fill:var(--color1, #f6f6f6)" />
      <path fill="#f6f6f6" d="M4.457 4.229 16.4 16.058l11.257 11.486h-23.2V4.23z" style="fill:var(--color1, #f6f6f6)" />
      <path fill="#4f2ee8" d="M27.733 27.618 15.79 15.789 4.533 4.303h23.2v23.314z"
        style="fill:var(--color2, #4f2ee8)" />
      <path fill="#4f2ee8" d="m9.257 9.029 13.6 13.6h-13.6v-13.6z" style="fill:var(--color2, #4f2ee8)" />
      <path fill="#f6f6f6" d="m9.257 9.029 13.6 13.6v-13.6h-13.6z" style="fill:var(--color1, #f6f6f6)" />
    </symbol>
    <symbol id="icon-bookshelf" viewBox="0 0 178 32">
      <path d="M22.176 8.533c0-4.731-3.497-7.406-9.545-7.406h-12.631v29.417h13.33c6.089 0 9.998-2.921 9.998-8.599 0-4.402-2.633-6.665-5.719-7.2v-0.082c2.427-0.823 4.567-2.51 4.567-6.13zM4.896 13.305v-8.023h7.858c2.921 0 4.526 1.44 4.526 4.032s-1.317 3.991-4.814 3.991h-7.57zM4.896 16.967h8.599c3.086 0 4.937 1.687 4.937 4.69 0 2.757-1.275 4.731-5.472 4.731h-8.064v-9.422z"></path>
      <path d="M35.89 31.161c-6.583 0-10.574-4.567-10.574-11.109s3.991-11.109 10.574-11.109c6.583 0 10.574 4.567 10.574 11.109s-3.991 11.109-10.574 11.109zM35.89 27.623c4.114 0 6.254-3.25 6.254-7.57 0-4.361-2.139-7.57-6.254-7.57s-6.254 3.209-6.254 7.57c0 4.32 2.139 7.57 6.254 7.57z"></path>
      <path d="M58.912 31.161c-6.583 0-10.574-4.567-10.574-11.109s3.991-11.109 10.574-11.109c6.583 0 10.574 4.567 10.574 11.109s-3.991 11.109-10.574 11.109zM58.912 27.623c4.114 0 6.254-3.25 6.254-7.57 0-4.361-2.139-7.57-6.254-7.57s-6.254 3.209-6.254 7.57c0 4.32 2.139 7.57 6.254 7.57z"></path>
      <path d="M72.472 1.127v29.417h4.32v-7.611l2.921-2.757 6.624 10.368h5.184l-8.846-13.207 7.982-7.817h-5.307l-8.558 8.434v-16.827h-4.32z"></path>
      <path d="M101.935 17.831c-3.045-0.699-5.39-0.864-5.39-3.003 0-1.481 1.399-2.469 3.991-2.469 3.374 0 4.197 1.687 4.485 3.333h4.197c-0.288-3.662-3.003-6.747-8.722-6.747-5.266 0-8.311 2.757-8.311 6.213 0 4.773 4.526 5.431 7.858 6.213 3.086 0.741 5.595 0.946 5.595 3.579 0 1.317-1.275 2.798-4.279 2.798-4.443 0-5.431-1.934-5.637-4.197h-4.197c0.206 4.443 3.127 7.611 9.915 7.611 5.102 0 8.558-2.51 8.558-6.542 0-5.019-4.197-5.883-8.064-6.789z"></path>
      <path d="M124.123 8.944c-3.538 0-5.719 1.646-6.83 3.291h-0.082v-11.109h-4.32v29.417h4.32v-12.795c0-3.127 2.263-5.143 5.431-5.143 3.003 0 4.197 1.81 4.197 4.649v13.289h4.361v-14.523c0-4.814-3.086-7.077-7.077-7.077z"></path>
      <path d="M144.448 27.623c-3.826 0-6.089-2.921-6.089-6.459h16.128c0-7.488-3.333-12.219-10.121-12.219-6.336 0-10.327 4.279-10.327 11.109 0 6.583 3.991 11.109 10.533 11.109 5.39 0 8.517-3.045 9.586-7.035h-4.32c-0.37 1.275-1.81 3.497-5.39 3.497zM144.366 12.359c3.497 0 5.801 2.345 5.801 5.595h-11.808c0-3.25 2.51-5.595 6.007-5.595z"></path>
      <path d="M157.531 1.127v29.417h4.361v-29.417h-4.361z"></path>
      <path d="M176.003 4.665v-3.538c-0.864-0.165-1.81-0.288-2.88-0.288-3.456 0-5.349 1.563-5.349 6.007v2.674h-3.003v3.538h3.003v17.486h4.361v-17.486h3.867v-3.538h-3.867v-2.304c0-2.386 1.070-2.674 3.867-2.551z"></path>
    </symbol>
    <symbol id="icon-shopping-list" viewBox="0 0 25 32">
      <path d="M22.815 8.593h-4.444v-1.481c0-1.572-0.624-3.079-1.736-4.19s-2.619-1.736-4.19-1.736c-1.572 0-3.079 0.624-4.19 1.736s-1.736 2.619-1.736 4.19v1.481h-4.444c-0.393 0-0.77 0.156-1.048 0.434s-0.434 0.655-0.434 1.048v16.296c0 1.179 0.468 2.309 1.302 3.143s1.964 1.302 3.143 1.302h14.815c1.179 0 2.309-0.468 3.143-1.302s1.302-1.964 1.302-3.143v-16.296c0-0.393-0.156-0.77-0.434-1.048s-0.655-0.434-1.047-0.434zM9.482 7.111c0-0.786 0.312-1.539 0.868-2.095s1.309-0.868 2.095-0.868c0.786 0 1.539 0.312 2.095 0.868s0.868 1.309 0.868 2.095v1.481h-5.926v-1.481zM21.334 26.37c0 0.393-0.156 0.77-0.434 1.047s-0.655 0.434-1.048 0.434h-14.815c-0.393 0-0.77-0.156-1.048-0.434s-0.434-0.655-0.434-1.047v-14.815h2.963v1.481c0 0.393 0.156 0.77 0.434 1.048s0.655 0.434 1.048 0.434c0.393 0 0.77-0.156 1.048-0.434s0.434-0.655 0.434-1.048v-1.481h5.926v1.481c0 0.393 0.156 0.77 0.434 1.048s0.655 0.434 1.048 0.434c0.393 0 0.77-0.156 1.048-0.434s0.434-0.655 0.434-1.048v-1.481h2.963v14.815z"></path>
    </symbol>

     <symbol id="icon-align-left" viewBox="0 0 32 32">
      <path stroke-linejoin="round" stroke-linecap="round" stroke-miterlimit="4" stroke-width="2.2857" d="M22.667 13.333h-18.667"></path>
      <path stroke-linejoin="round" stroke-linecap="round" stroke-miterlimit="4" stroke-width="2.2857" d="M28 8h-24"></path>
      <path stroke-linejoin="round" stroke-linecap="round" stroke-miterlimit="4" stroke-width="2.2857" d="M28 18.667h-24"></path>
      <path stroke-linejoin="round" stroke-linecap="round" stroke-miterlimit="4" stroke-width="2.2857" d="M22.667 24h-18.667"></path>
    </symbol>
    <symbol id="icon-x-close" viewBox="0 0 32 32">
      <path stroke-linejoin="round" stroke-linecap="round" stroke-miterlimit="4" stroke-width="3.4286" d="M24 8l-16 16M8 8l16 16"></path>
    </symbol>

    <symbol id="icon-user-authorization-triangle" viewBox="0 0 28 32">
      <path fill="#fff" style="fill: var(--color1, #fff)" d="M5.897 12h16.513l-7.423 8.391c-0.221 0.25-0.521 0.39-0.834 0.39s-0.613-0.14-0.834-0.39l-7.423-8.391z"></path>
    </symbol>
    <symbol id="icon-arrow-narrow-right" viewBox="0 0 32 32">
      <path stroke-linejoin="round" stroke-linecap="round" stroke-miterlimit="4" stroke-width="3.2" d="M5.333 16h21.333M26.666 16l-8-8M26.666 16l-8 8"></path>
    </symbol>

    <svg id="arrowtotop" width="24" height="24" viewBox="0 0 24 24" xmlns="http://www.w3.org/2000/svg">
    <path d="M3.37495 14.7L11.775 6.275C11.875 6.175 11.9833 6.10433 12.0999 6.063C12.2166 6.021 12.3416 6 12.4749 6C12.6083 6 12.7333 6.021 12.8499 6.063C12.9666 6.10433 13.075 6.175 13.175 6.275L21.6 14.7C21.8333 14.9333 21.95 15.225 21.95 15.575C21.95 15.925 21.825 16.225 21.575 16.475C21.325 16.725 21.0333 16.85 20.7 16.85C20.3666 16.85 20.075 16.725 19.825 16.475L12.4749 9.125L5.12495 16.475C4.89161 16.7083 4.60428 16.825 4.26295 16.825C3.92095 16.825 3.62495 16.7 3.37495 16.45C3.12495 16.2 2.99995 15.9083 2.99995 15.575C2.99995 15.2417 3.12495 14.95 3.37495 14.7Z"/>
    </svg>

    <!-- Footer -->
    <symbol id="icon-ukrainain-heart" viewBox="0 0 35 32">
<path fill="#fecb00" style="fill: var(--color1, #fecb00)" d="M31.552 18.346c-0.116 0.002-0.233 0.010-0.35 0.009-0.359-0.002-0.716-0.015-1.073-0.038s-0.714-0.056-1.069-0.098c-0.355-0.042-0.709-0.093-1.062-0.152s-0.705-0.126-1.056-0.2c-0.351-0.074-0.701-0.156-1.049-0.243s-0.695-0.181-1.041-0.28c-0.346-0.099-0.69-0.203-1.033-0.311s-0.683-0.221-1.023-0.337c-0.679-0.232-1.356-0.479-2.032-0.732s-1.352-0.512-2.029-0.771c-0.676-0.259-1.353-0.518-2.031-0.769s-1.357-0.494-2.039-0.723c-0.341-0.114-0.683-0.224-1.025-0.33s-0.686-0.206-1.029-0.301c-0.344-0.095-0.688-0.185-1.034-0.269s-0.693-0.161-1.041-0.23c-0.348-0.069-0.697-0.132-1.047-0.185s-0.701-0.099-1.054-0.136c-0.353-0.036-0.706-0.063-1.062-0.080s-0.713-0.024-1.071-0.020c-0.369 0.004-0.738 0.021-1.106 0.050s-0.736 0.068-1.101 0.12c-0.365 0.052-0.729 0.116-1.091 0.191s-0.72 0.162-1.076 0.261c-0.356 0.098-0.708 0.207-1.057 0.328-0.076 0.026-0.15 0.059-0.226 0.087 1.409 4.55 5.199 9.262 11.973 15.042 2.432 2.075 4.557 3.773 4.721 3.773 0.802 0 7.029-5.31 10.192-8.691 1.587-1.697 2.926-3.356 4.022-4.963z"></path>
<path fill="#0068c2" style="fill: var(--color2, #0068c2)" d="M8.317 0c-1.596 0.014-3.153 0.372-4.323 1.107-3.022 1.898-4.040 3.954-3.993 8.060 0.015 1.341 0.226 2.673 0.643 4.018 0.076-0.027 0.15-0.061 0.226-0.087 0.349-0.121 0.701-0.23 1.057-0.328s0.714-0.185 1.076-0.261c0.361-0.075 0.725-0.139 1.091-0.191s0.733-0.092 1.101-0.12c0.368-0.028 0.737-0.045 1.106-0.050 0.359-0.004 0.716 0.003 1.071 0.020s0.709 0.044 1.062 0.080c0.353 0.036 0.704 0.082 1.054 0.136s0.699 0.116 1.047 0.185c0.348 0.069 0.695 0.147 1.041 0.23s0.69 0.173 1.034 0.269c0.344 0.095 0.687 0.195 1.029 0.301s0.684 0.216 1.025 0.33c0.682 0.228 1.361 0.472 2.039 0.723s1.355 0.51 2.031 0.769c0.676 0.259 1.352 0.518 2.029 0.771s1.354 0.5 2.032 0.732c0.339 0.116 0.68 0.229 1.023 0.337s0.687 0.213 1.033 0.311c0.346 0.099 0.693 0.193 1.041 0.28s0.698 0.169 1.049 0.243c0.351 0.074 0.703 0.141 1.056 0.2s0.707 0.11 1.062 0.152c0.355 0.042 0.712 0.075 1.069 0.098s0.715 0.036 1.073 0.038c0.116 0.001 0.233-0.007 0.35-0.009 4.505-6.612 4.829-12.352 0.748-16.262-1.387-1.329-2.477-1.762-4.955-1.967-3.873-0.321-6.375 0.808-8.269 3.732-1.509 2.329-1.992 2.52-2.48 0.982-0.189-0.595-1.14-1.845-2.115-2.778-1.415-1.356-3.831-2.072-6.163-2.052z"></path>
<path fill="#000" style="fill: var(--color3, #000)" opacity="0.217903" d="M21.689 27.451c7.613-8.093 10.49-13.114 10.5-18.323 0.007-4.137-1.26-6.453-4.332-7.913l-2.481-1.179 2.586 0.289c4.755 0.531 7.77 5.211 6.879 10.678-0.672 4.123-3.268 8.132-8.943 13.809-6.573 6.576-9.838 8.623-4.209 2.64zM14.238 5.404c-1.238-2.244-2.277-3.278-4.15-4.128-2.431-1.103-2.45-1.135-0.72-1.145 3.317-0.020 8.335 4.48 7.862 7.051-0.322 1.752-1.397 1.113-2.992-1.777z"></path>
<path fill="#fff" style="fill: var(--color4, #fff)" opacity="0.367623" d="M6.444 2.729c-0.727-0.004-1.504 0.456-2.448 1.4-2.635 2.375-1.052 11.816 0.124 5.816 0.217-0.989 1.66-2.366 2.594-3.057 2.161-1.598 2.531-2.17 1.392-3.308-0.561-0.561-1.096-0.847-1.662-0.851zM24.069 2.86c-1.031-0.007-2.121 0.773-2.858 2.198-1.161 2.245-0.507 2.359 1.193 2.359 0.797 0 1.571-0.651 2.486-1.445 1.544-1.341 1.594-1.515 0.692-2.432-0.449-0.456-0.973-0.676-1.514-0.68z"></path>
</symbol>
  </defs>
</svg>