<svg xmlns="http://www.w3.org/2000/svg" aria-hidden="true" style="position:absolute;width:0;height:0;overflow:hidden">
  <defs>

  <!-- Header -->
    <symbol id="icon-logo" viewBox="0 0 32 32">
      <path fill="#f6f6f6" d="m0 0 16.343 16.171L32 32V0H0z" style="fill:var(--color1, #f6f6f6)" />
      <path fill="#f6f6f6" d="M4.457 4.229 16.4 16.058l11.257 11.486h-23.2V4.23z" style="fill:var(--color1, #f6f6f6)" />
      <path fill="#4f2ee8" d="M27.733 27.618 15.79 15.789 4.533 4.303h23.2v23.314z"
        style="fill:var(--color2, #4f2ee8)" />
      <path fill="#4f2ee8" d="m9.257 9.029 13.6 13.6h-13.6v-13.6z" style="fill:var(--color2, #4f2ee8)" />
      <path fill="#f6f6f6" d="m9.257 9.029 13.6 13.6v-13.6h-13.6z" style="fill:var(--color1, #f6f6f6)" />
    </symbol>
    <symbol id="icon-shopping-list" viewBox="0 0 25 32">
      <path d="M22.815 8.593h-4.444v-1.481c0-1.572-0.624-3.079-1.736-4.19s-2.619-1.736-4.19-1.736c-1.572 0-3.079 0.624-4.19 1.736s-1.736 2.619-1.736 4.19v1.481h-4.444c-0.393 0-0.77 0.156-1.048 0.434s-0.434 0.655-0.434 1.048v16.296c0 1.179 0.468 2.309 1.302 3.143s1.964 1.302 3.143 1.302h14.815c1.179 0 2.309-0.468 3.143-1.302s1.302-1.964 1.302-3.143v-16.296c0-0.393-0.156-0.77-0.434-1.048s-0.655-0.434-1.047-0.434zM9.482 7.111c0-0.786 0.312-1.539 0.868-2.095s1.309-0.868 2.095-0.868c0.786 0 1.539 0.312 2.095 0.868s0.868 1.309 0.868 2.095v1.481h-5.926v-1.481zM21.334 26.37c0 0.393-0.156 0.77-0.434 1.047s-0.655 0.434-1.048 0.434h-14.815c-0.393 0-0.77-0.156-1.048-0.434s-0.434-0.655-0.434-1.047v-14.815h2.963v1.481c0 0.393 0.156 0.77 0.434 1.048s0.655 0.434 1.048 0.434c0.393 0 0.77-0.156 1.048-0.434s0.434-0.655 0.434-1.048v-1.481h5.926v1.481c0 0.393 0.156 0.77 0.434 1.048s0.655 0.434 1.048 0.434c0.393 0 0.77-0.156 1.048-0.434s0.434-0.655 0.434-1.048v-1.481h2.963v14.815z"></path>
    </symbol>

     <symbol id="icon-align-left" viewBox="0 0 32 32">
      <path stroke-linejoin="round" stroke-linecap="round" stroke-miterlimit="4" stroke-width="2.2857" d="M22.667 13.333h-18.667"></path>
      <path stroke-linejoin="round" stroke-linecap="round" stroke-miterlimit="4" stroke-width="2.2857" d="M28 8h-24"></path>
      <path stroke-linejoin="round" stroke-linecap="round" stroke-miterlimit="4" stroke-width="2.2857" d="M28 18.667h-24"></path>
      <path stroke-linejoin="round" stroke-linecap="round" stroke-miterlimit="4" stroke-width="2.2857" d="M22.667 24h-18.667"></path>
    </symbol>
    <symbol id="icon-x-close" viewBox="0 0 32 32">
      <path stroke-linejoin="round" stroke-linecap="round" stroke-miterlimit="4" stroke-width="3.4286" d="M24 8l-16 16M8 8l16 16"></path>
    </symbol>

    <symbol id="icon-user-authorization-triangle" viewBox="0 0 28 32">
      <path fill="#fff" style="fill: var(--color1, #fff)" d="M5.897 12h16.513l-7.423 8.391c-0.221 0.25-0.521 0.39-0.834 0.39s-0.613-0.14-0.834-0.39l-7.423-8.391z"></path>
    </symbol>
    <symbol id="icon-arrow-narrow-right" viewBox="0 0 32 32">
      <path stroke-linejoin="round" stroke-linecap="round" stroke-miterlimit="4" stroke-width="3.2" d="M5.333 16h21.333M26.666 16l-8-8M26.666 16l-8 8"></path>
    </symbol>

    <symbol id="icon-trash" viewBox="0 0 32 32">
      <path fill="none" stroke="#fff" style="stroke: var(--color1, #fff)" stroke-linejoin="round" stroke-linecap="round" stroke-miterlimit="4" stroke-width="2.6667" d="M12 4h8M4 8h24M25.333 8l-0.935 14.026c-0.14 2.104-0.21 3.156-0.665 3.954-0.4 0.702-1.004 1.267-1.731 1.62-0.826 0.4-1.881 0.4-3.99 0.4h-4.025c-2.109 0-3.163 0-3.99-0.4-0.727-0.353-1.331-0.917-1.731-1.62-0.455-0.798-0.525-1.85-0.665-3.954l-0.935-14.026M13.333 14v6.667M18.667 14v6.667"></path>
    </symbol>
    <svg id="arrowtotop" width="24" height="24" viewBox="0 0 24 24" xmlns="http://www.w3.org/2000/svg">
    <path d="M3.37495 14.7L11.775 6.275C11.875 6.175 11.9833 6.10433 12.0999 6.063C12.2166 6.021 12.3416 6 12.4749 6C12.6083 6 12.7333 6.021 12.8499 6.063C12.9666 6.10433 13.075 6.175 13.175 6.275L21.6 14.7C21.8333 14.9333 21.95 15.225 21.95 15.575C21.95 15.925 21.825 16.225 21.575 16.475C21.325 16.725 21.0333 16.85 20.7 16.85C20.3666 16.85 20.075 16.725 19.825 16.475L12.4749 9.125L5.12495 16.475C4.89161 16.7083 4.60428 16.825 4.26295 16.825C3.92095 16.825 3.62495 16.7 3.37495 16.45C3.12495 16.2 2.99995 15.9083 2.99995 15.575C2.99995 15.2417 3.12495 14.95 3.37495 14.7Z"/>
    </svg>

   </defs>
</svg>